<?xml version="1.0" encoding="utf-8"?>
<!-- Generator: Adobe Illustrator 16.0.0, SVG Export Plug-In . SVG Version: 6.00 Build 0)  -->
<!DOCTYPE svg PUBLIC "-//W3C//DTD SVG 1.1//EN" "http://www.w3.org/Graphics/SVG/1.1/DTD/svg11.dtd">
<svg version="1.1" id="HackerRank" xmlns="http://www.w3.org/2000/svg" xmlns:xlink="http://www.w3.org/1999/xlink" x="0px" y="0px"
	 width="3000px" height="643px" viewBox="0 0 3000 643" enable-background="new 0 0 3000 643" xml:space="preserve">
<g>
	<g id="Hexagon_1_">
		<g>
			<linearGradient id="SVGID_1_" gradientUnits="userSpaceOnUse" x1="532.4087" y1="290.1465" x2="532.4087" y2="16.5">
				<stop  offset="0" style="stop-color:#25A559"/>
				<stop  offset="1" style="stop-color:#30CE68"/>
			</linearGradient>
			<path fill="url(#SVGID_1_)" d="M450.144,16.5c-14.651,0-61.362,22.151-111.534,49.901l387.597,223.745
				c-1.113-57.23-5.305-108.562-12.612-121.143c-6.163-10.626-37.215-33.152-76.09-57.697L533.851,51.472
				C495.027,31.112,462.035,16.5,450.144,16.5z"/>
			<linearGradient id="SVGID_2_" gradientUnits="userSpaceOnUse" x1="478.7886" y1="416.1641" x2="478.7885" y2="66.4014">
				<stop  offset="0" style="stop-color:#25A559"/>
				<stop  offset="1" style="stop-color:#30CE68"/>
			</linearGradient>
			<path fill="url(#SVGID_2_)" d="M231.065,131.953l492.351,284.211c2.708-35.907,3.643-82.633,2.791-126.018L338.61,66.401
				C300.6,87.423,260.631,111.636,231.065,131.953z"/>
			<linearGradient id="SVGID_3_" gradientUnits="userSpaceOnUse" x1="450.1143" y1="511.7988" x2="450.1142" y2="131.9531">
				<stop  offset="0" style="stop-color:#25A559"/>
				<stop  offset="1" style="stop-color:#30CE68"/>
			</linearGradient>
			<path fill="url(#SVGID_3_)" d="M231.065,131.953c-23.216,15.938-40.028,29.451-44.371,37.051
				c-4.447,7.779-7.735,30.065-9.881,59.246l491.18,283.549c23.83-16.282,41.171-30.111,45.603-37.803
				c4.396-7.614,7.659-29.314,9.821-57.832L231.065,131.953z"/>
			<linearGradient id="SVGID_4_" gradientUnits="userSpaceOnUse" x1="420.9878" y1="578.4492" x2="420.9878" y2="228.0391">
				<stop  offset="0" style="stop-color:#25A559"/>
				<stop  offset="1" style="stop-color:#30CE68"/>
			</linearGradient>
			<path fill="url(#SVGID_4_)" d="M668.173,511.679l-491.345-283.64c-2.725,36.841-3.612,84.725-2.649,128.712l384.038,221.698
				C596.807,557.216,637.799,532.444,668.173,511.679z"/>
			<linearGradient id="SVGID_5_" gradientUnits="userSpaceOnUse" x1="366.1978" y1="626.5" x2="366.1978" y2="356.751">
				<stop  offset="0" style="stop-color:#25A559"/>
				<stop  offset="1" style="stop-color:#30CE68"/>
			</linearGradient>
			<path fill="url(#SVGID_5_)" d="M174.179,356.751c1.22,55.576,5.381,104.831,12.515,117.245
				C203.943,504.032,415.685,626.5,450.144,626.5c14.314,0,59.225-21.174,108.073-48.051L174.179,356.751z"/>
		</g>
	</g>
	<g id="H_1_">
		
			<image overflow="visible" opacity="0.1" width="316" height="427" xlink:href="2276F829F632BF8F.png"  transform="matrix(1 0 0 1 292 111)">
		</image>
		<g>
			<path fill="#FFFFFF" d="M501.931,345.368v105.574h-17.819c-3.621,0-6.551,2.935-6.551,6.545c0,2.37,1.256,4.44,3.138,5.591
				l40.05,38.391c1.197,1.564,3.574,2.753,5.697,2.753c2.168,0,4.086-1.128,5.275-2.753l42.669-38.397
				c1.873-1.151,3.123-3.221,3.123-5.584c0-3.61-2.935-6.545-6.55-6.545h-17.881l-0.153-255.099c0-3.613-2.868-6.547-6.483-6.547
				h-37.928c-3.62,0-6.585,2.934-6.585,6.547v98.478l-103.554-0.014v-102.25h17.821c3.619,0,6.55-2.935,6.55-6.547
				c0-2.37-1.256-4.438-3.137-5.59l-40.05-38.389c-1.198-1.565-3.575-2.755-5.698-2.755c-2.167,0-4.086,1.13-5.274,2.755
				l-42.671,38.396c-1.873,1.15-3.122,3.219-3.122,5.582c0,3.612,2.935,6.547,6.551,6.547h17.881l0.154,255.099
				c0,3.613,2.868,6.547,6.483,6.547h37.928c3.62,0,6.585-2.934,6.585-6.547V345.368H501.931z"/>
		</g>
	</g>
	<path fill-rule="evenodd" clip-rule="evenodd" fill="#39424E" d="M2215.807,430.207c-21.197-34.658-42.503-69.25-63.737-103.884
		c-1.818-2.965-3.367-6.095-5.366-9.74c4.735-1.432,8.245-2.392,11.689-3.551c31.929-10.738,51.601-37.057,52.614-70.331
		c1.202-39.408-19.442-66.994-57.794-76.526c-8.672-2.154-17.672-3.869-26.563-4.091c-28.63-0.715-57.279-0.693-85.922-0.846
		c-16.655-0.089-16.951,0.262-16.953,16.477c-0.013,84.614-0.011,169.229,0.003,253.845c0.001,2.993,0.033,6,0.302,8.979
		c0.374,4.158,2.522,6.954,6.94,7.023c8.991,0.141,17.987,0.116,26.979,0.06c4.371-0.027,6.741-2.636,7.335-6.719
		c0.381-2.616,0.234-5.317,0.235-7.98c0.012-33.312,0.008-66.626,0.008-99.938c0-3.622,0-7.244,0-12.848
		c10.023,0,18.615,0.285,27.177-0.101c5.708-0.258,9.183,1.737,11.998,6.786c7.135,12.792,14.796,25.289,22.261,37.896
		c14.759,24.928,29.615,49.8,44.222,74.818c3.102,5.312,6.453,8.802,13.272,8.293c7.288-0.545,14.656,0.082,21.975-0.191
		c4.724-0.177,10.553,2.02,13.428-3.827C2222.602,438.335,2218.328,434.33,2215.807,430.207z M2120.429,281.626
		c-16.846,1.336-33.863,0.522-50.809,0.555c-0.917,0.002-1.835-0.534-3.367-1.01c0-26.777,0-53.546,0-80.347
		c0.457-0.409,0.938-1.217,1.436-1.229c21.893-0.508,43.821-2.031,65.588,1.782c3.257,0.571,6.508,1.387,9.632,2.465
		c22.691,7.829,32.979,31.217,23.508,53.317c-3.289,7.676-8.75,13.798-16.402,16.607
		C2140.446,277.279,2130.454,280.832,2120.429,281.626z M1510.848,365.782c-0.145,3.212-0.408,6.423-0.414,9.635
		c-0.041,20.332,0.042,40.664-0.055,60.996c-0.046,9.812-1.35,11.099-10.813,11.268c-6.664,0.119-13.339,0.201-19.996-0.052
		c-6.911-0.262-8.555-2.107-8.97-9.146c-0.117-1.993-0.035-3.998-0.035-5.998c0-91.328,0.001-182.655,0.003-273.983
		c0-2.333-0.103-4.674,0.049-6.997c0.41-6.281,2.293-8.589,8.35-8.863c7.65-0.346,15.339-0.334,22.99-0.008
		c6.248,0.267,7.985,2.343,8.395,8.728c0.171,2.656,0.06,5.331,0.06,7.997c0.003,50.997-0.006,101.994,0.024,152.99
		c0.002,3.53,0.291,7.061,0.533,12.521c3.579-2.975,5.855-4.624,7.85-6.562c20.072-19.515,40.188-38.987,60.063-58.701
		c4.088-4.054,8.282-6.062,14.087-5.847c9.653,0.357,19.33,0.062,28.995,0.118c3.938,0.023,8.352-0.64,10.022,4.406
		c1.537,4.641-1.399,7.438-4.468,10.214c-24.224,21.912-48.416,43.857-72.605,65.808c-2.937,2.665-5.798,5.416-9.142,8.547
		c2.047,2.341,3.622,4.402,5.457,6.199c27.617,27.054,55.268,54.072,82.911,81.101c1.668,1.631,3.833,3.003,4.866,4.969
		c1.276,2.43,2.831,5.83,2.01,7.931c-0.82,2.102-4.282,4.01-6.836,4.41c-4.557,0.715-9.304,0.336-13.967,0.228
		c-8.958-0.209-18.855,1.722-26.598-1.49c-7.396-3.067-12.635-11.461-18.668-17.663c-17.893-18.395-35.704-36.869-53.562-55.298
		c-2.734-2.821-5.545-5.569-8.32-8.352C1512.326,365.185,1511.587,365.483,1510.848,365.782z M2695.914,366.062
		c0,6.298,0,12.597,0,18.895c0,17.325,0.1,34.651-0.04,51.977c-0.072,8.831-1.858,10.542-10.502,10.738
		c-6.327,0.145-12.663,0.146-18.99,0.003c-8.752-0.197-10.197-1.73-10.579-10.688c-0.085-1.996-0.033-3.998-0.033-5.997
		c-0.001-90.626-0.006-181.252,0.002-271.878c0.001-16.409,0.205-16.592,16.856-16.595c4.998-0.001,10.013-0.222,14.988,0.122
		c5.515,0.38,7.663,2.647,8.201,8.091c0.261,2.642,0.096,5.326,0.096,7.991c0.004,50.978,0.004,101.955,0.004,152.932
		c0,3.604,0,7.206,0,13.454c4.343-3.719,7.057-5.796,9.488-8.164c19.094-18.594,38.266-37.111,57.102-55.963
		c5.055-5.058,10.17-7.796,17.532-7.27c8.618,0.617,17.315,0.092,25.978,0.167c4.229,0.037,9.079-0.983,11.188,4.287
		c2.098,5.242-1.955,7.966-5.098,10.823c-24.158,21.966-48.37,43.872-72.551,65.812c-2.688,2.438-5.285,4.974-8.703,8.199
		c2.555,2.754,4.633,5.189,6.91,7.42c27.375,26.803,54.78,53.575,82.176,80.357c1.428,1.396,3.354,2.571,4.141,4.271
		c1.169,2.522,2.705,5.865,1.889,8.033c-0.78,2.074-4.322,4.292-6.722,4.376c-12.312,0.428-24.673,0.624-36.958-0.105
		c-3.362-0.2-7.052-3.355-9.686-6.043c-22.154-22.6-44.091-45.413-66.113-68.143c-2.7-2.787-5.521-5.457-8.286-8.182
		C2697.44,365.343,2696.677,365.703,2695.914,366.062z M1840.577,335.234c-3.385-49.808-37.967-83.175-83.651-85.873
		c-39.718-2.346-70.796,12.417-92.104,46.27c-12.332,19.591-16.311,41.454-14.169,64.212c3.817,40.554,23.698,70.115,61.984,85.668
		c22.012,8.942,44.857,8.765,67.659,2.753c20.354-5.366,36.628-17.087,49.99-33.075c5.912-7.074,5.629-10.024-1.257-15.727
		c-3.076-2.547-6.275-4.947-9.424-7.407c-12.073-9.433-11.907-9.283-21.943,2.094c-16.958,19.223-38.215,26.559-62.995,19.745
		c-23.64-6.5-37.407-22.927-42.733-48.761c5.134-0.247,9.02-0.594,12.905-0.598c39.631-0.04,79.262-0.023,118.893-0.028
		c2.663,0,5.34,0.112,7.988-0.1c6.993-0.558,8.705-2.016,9.08-9.219C1841.146,348.557,1841.028,341.864,1840.577,335.234z
		 M1693.425,329.471c0.918-3.563,1.294-6.46,2.388-9.054c13.689-32.431,47.972-43.22,77.102-30.466
		c16.098,7.048,23.911,21.027,26.583,39.52C1763.535,329.471,1729.103,329.471,1693.425,329.471z M1227.943,435.613
		c-0.964-13.272-1.922-26.57-2.102-39.867c-0.337-24.993,0.207-49.998-0.2-74.989c-0.604-37.09-20.151-61.914-55.501-69.337
		c-30.629-6.432-59.62-1.188-86.089,16.002c-3.334,2.166-6.481,4.723-9.356,7.474c-5.081,4.859-5.246,7.422-1.133,12.934
		c2.189,2.933,4.686,5.636,7.052,8.437c10.08,11.933,9.977,11.79,22.764,2.43c18.379-13.455,38.896-17.142,60.678-11.125
		c15.904,4.394,24.232,18.742,21.223,35.232c-11.087,0.477-22.385,0.847-33.668,1.476c-17.695,0.985-35.176,3.392-51.802,9.858
		c-15.713,6.111-29.333,15.274-35.399,31.719c-12.463,33.78-0.067,68.99,36.677,81.872c15.831,5.551,32.08,5.479,48.37,2.829
		c14.49-2.355,26.971-9.168,39.345-20.233c0.943,4.084,1.478,6.234,1.934,8.401c1.596,7.573,2.871,8.742,10.61,8.947
		c5.329,0.142,10.667,0.115,15.997,0.016C1227.32,447.503,1228.671,445.637,1227.943,435.613z M1118.819,414.209
		c-8.646-3.017-15.097-8.199-17.318-17.653c-2.562-10.907,0.092-18.94,9.445-25.14c4.381-2.903,9.278-5.373,14.287-6.921
		c19.576-6.047,39.741-6.993,60.639-6.635C1191.143,398.224,1155.838,427.126,1118.819,414.209z M2406.998,436.55
		c-1.129-12.261-2.296-24.561-2.477-36.858c-0.416-28.325,0.271-56.673-0.46-84.985c-0.752-29.1-17.894-51.255-45.352-60.742
		c-17.816-6.156-36.038-6.211-54.291-3.092c-17.677,3.02-33.85,9.903-47.816,21.39c-8.509,6.997-8.736,9.778-1.94,18.084
		c2.743,3.353,5.51,6.69,8.376,9.938c6.278,7.116,8.424,7.404,15.631,1.342c14.782-12.435,31.784-17.342,50.96-16.535
		c18.396,0.774,36.071,10.047,35.785,37.057c-3.687,0.385-6.9,0.862-10.131,1.028c-8.985,0.462-17.991,0.604-26.966,1.219
		c-16.663,1.142-33.125,3.529-48.855,9.486c-14.766,5.592-27.31,14.132-34.643,28.575c-15.744,31.01-2.961,69.334,29.116,82.562
		c30.504,12.579,60.573,10.616,88.009-9.787c1.75-1.302,3.705-2.328,6.086-3.805c0.714,3.044,1.202,5.293,1.771,7.521
		c2.021,7.905,2.723,8.54,10.814,8.731c5.663,0.135,11.336,0.153,16.997-0.011C2406.157,447.421,2407.78,445.044,2406.998,436.55z
		 M2325.003,415.884c-8.695,1.076-18.007,0.133-26.611-1.786c-10.527-2.348-17.209-9.521-18.462-20.953
		c-1.265-11.531,4.044-19.172,13.821-24.205c3.826-1.971,7.817-3.813,11.941-4.98c19.07-5.394,38.619-6.353,58.763-6.294
		C2369.657,380.731,2354.982,412.176,2325.003,415.884z M2485.229,270.142c4.058-2.836,6.711-4.761,9.435-6.581
		c24.499-16.371,50.868-18.994,78.17-9.103c23.422,8.484,35.356,27.307,40.845,50.562c1.741,7.375,2.407,15.151,2.46,22.752
		c0.247,35.634,0.111,71.27,0.1,106.904c-0.001,2.33,0.615,5.037-0.352,6.894c-1.221,2.345-3.662,5.53-5.77,5.682
		c-8.943,0.645-17.961,0.43-26.945,0.255c-3.818-0.073-6.127-2.429-6.439-6.308c-0.213-2.649-0.157-5.323-0.158-7.986
		c-0.011-28.642,0.132-57.283-0.093-85.923c-0.069-8.962-0.636-17.981-1.826-26.86c-2.005-14.954-7.739-28.007-23.483-32.937
		c-16.555-5.184-32.359-3.377-45.801,8.688c-9.832,8.826-14.772,20.459-17.027,33.147c-1.274,7.17-1.793,14.554-1.847,21.847
		c-0.206,27.974-0.051,55.95-0.103,83.925c-0.021,11.551-1.033,12.507-12.525,12.601c-5.662,0.047-11.326,0.12-16.984-0.027
		c-8.347-0.218-9.957-1.813-10.292-9.858c-0.11-2.66-0.137-5.26-0.14-7.924c0-5.823,0.07-95.315-0.1-142.938
		c-0.027-7.645-1.018-15.28-1.255-22.93c-0.253-8.166,1.491-9.902,9.794-10.125c5.99-0.161,11.989-0.115,17.982-0.018
		c9.222,0.149,10.047,0.943,11.323,10.041C2484.42,265.509,2484.719,267.086,2485.229,270.142z M1363.261,452.948
		c-29.403-0.572-55.155-9.391-75.847-30.776c-14.097-14.569-22.502-32.162-25.581-52.065c-3.752-24.262-1.465-47.837,10.432-69.834
		c15.738-29.1,40.656-44.944,72.88-50.026c20.596-3.247,40.448-0.608,59.521,7.884c11.459,5.103,21.301,12.355,29.208,22.084
		c5.05,6.214,4.698,9.335-1.545,14.131c-5.542,4.259-11.298,8.245-17.052,12.219c-4.166,2.877-8.142,2.712-11.372-1.549
		c-14.232-18.772-33.577-23.121-55.288-18.385c-22.432,4.893-36.773,19.471-43.424,41.188c-5.545,18.105-4.64,36.145,2.992,53.678
		c17.817,40.934,74.042,44.966,96.596,16.573c5.716-7.195,7.536-6.942,14.949-1.691c4.346,3.079,8.611,6.279,12.82,9.544
		c7.66,5.941,8.136,9.272,1.83,16.275c-12.11,13.447-26.767,23.069-44.506,27.097
		C1381.175,451.268,1372.143,451.775,1363.261,452.948z M1918.651,269.548c3.236-2.457,5.073-3.814,6.872-5.221
		c17.613-13.773,37.587-17.752,59.319-14.166c8.309,1.37,9.963,3.597,9.15,12.218c-0.53,5.627-1.397,11.226-2.221,16.821
		c-1.419,9.649-3.64,10.867-13.271,9.78c-7.193-0.811-14.652-1.355-21.762-0.363c-13.065,1.822-22.387,9.627-28.472,21.255
		c-5.831,11.145-8.343,23.082-8.34,35.606c0.006,28.973-0.005,57.945-0.012,86.918c0,2.331,0.143,4.678-0.071,6.99
		c-0.53,5.75-2.404,7.972-7.928,8.188c-7.98,0.314-15.99,0.318-23.971,0.003c-5.867-0.233-7.416-2.01-8.019-8.032
		c-0.298-2.971-0.153-5.988-0.154-8.984c-0.008-35.634-0.054-105.187-0.054-106.899c-0.091-18.974-0.622-37.946-1.071-56.917
		c-0.281-11.901,0.404-12.771,11.872-12.88c5.328-0.051,10.658-0.091,15.984,0.016c8.713,0.175,9.33,0.743,11.093,9.413
		C1917.919,264.873,1918.138,266.474,1918.651,269.548z M843.748,319.75c0,0-0.029,118.254-0.029,120.921
		c0,4.686-3.087,6.949-7.909,6.972c-8.664,0.039-17.328,0.047-25.992-0.024c-4.852-0.041-7.671-2.722-7.671-7.471
		c0-2.554,0.005-262.897,0.005-263.937c0.003-14.499,0.502-14.946,15.322-14.992c4.666-0.015,9.333-0.062,13.997,0.022
		c10.76,0.194,12.13,1.548,12.263,12.094c0.067,5.331,0.014,101.158,0.014,106.223h134.919c0-5.064-0.053-100.393,0.014-105.724
		c0.133-10.546,1.503-11.899,12.263-12.094c4.664-0.084,9.331-0.037,13.997-0.022c14.82,0.046,15.319,0.493,15.322,14.992
		c0,1.039,0.005,261.383,0.005,263.937c0,4.749-2.82,7.43-7.671,7.471c-8.664,0.071-17.328,0.063-25.992,0.024
		c-4.822-0.022-7.909-2.286-7.909-6.972c0-2.667-0.029-121.42-0.029-121.42H843.748z"/>
</g>
</svg>
